<mxfile host="app.diagrams.net" modified="2021-12-14T16:51:07.106Z" agent="5.0 (Windows NT 10.0; Win64; x64) AppleWebKit/537.36 (KHTML, like Gecko) Chrome/96.0.4664.45 Safari/537.36" etag="VYE5NnYUl9mtXS-kwtox" version="15.9.6" type="github">
  <diagram id="IbzGcBM9QDybaDAkwbq8" name="Page-1">
    <mxGraphModel dx="1422" dy="786" grid="1" gridSize="10" guides="1" tooltips="1" connect="1" arrows="1" fold="1" page="1" pageScale="1" pageWidth="850" pageHeight="1100" math="0" shadow="0">
      <root>
        <mxCell id="0" />
        <mxCell id="1" parent="0" />
        <mxCell id="bjESsrOZtTePqHt1_tni-1" value="&lt;h1&gt;Задание&lt;/h1&gt;&lt;p&gt;Есть сайт компании/блог. 1000000 уникальных пользователей в день. Новые записи/редактирование происходят достаточно редко, примерно раз в месяц. Надо описать стек применимых технологий (языки, кеши, базу, очереди) и как они будут взаимодействовать.&lt;/p&gt;" style="text;html=1;strokeColor=none;fillColor=none;spacing=5;spacingTop=-20;whiteSpace=wrap;overflow=hidden;rounded=0;" vertex="1" parent="1">
          <mxGeometry x="20" y="20" width="380" height="120" as="geometry" />
        </mxCell>
      </root>
    </mxGraphModel>
  </diagram>
</mxfile>
